<svg xmlns="http://www.w3.org/2000/svg" xmlns:xlink="http://www.w3.org/1999/xlink" viewBox="0 0 21.29 32.68"><defs><style>.cls-1{fill:url(#linear-gradient);}.cls-2{fill:url(#linear-gradient-2);}.cls-3{fill:url(#linear-gradient-3);}.cls-4,.cls-5,.cls-7{opacity:0.79;}.cls-4{fill:url(#linear-gradient-4);}.cls-5{fill:url(#linear-gradient-5);}.cls-6{fill:url(#linear-gradient-6);}.cls-7{fill:url(#linear-gradient-7);}</style><linearGradient id="linear-gradient" x1="0.84" y1="8.29" x2="19.44" y2="28.2" gradientUnits="userSpaceOnUse"><stop offset="0" stop-color="#ffbc04"/><stop offset="0.39" stop-color="#f4990e"/><stop offset="1" stop-color="#e05920"/></linearGradient><linearGradient id="linear-gradient-2" x1="3.97" y1="5.37" x2="22.57" y2="25.27" gradientUnits="userSpaceOnUse"><stop offset="0" stop-color="#d46800"/><stop offset="0.66" stop-color="#b14e00"/><stop offset="1" stop-color="#9d3f00"/></linearGradient><linearGradient id="linear-gradient-3" x1="0.42" y1="8.69" x2="19.02" y2="28.6" gradientUnits="userSpaceOnUse"><stop offset="0" stop-color="#9d3f00"/><stop offset="0.34" stop-color="#b14e00"/><stop offset="1" stop-color="#d46800"/></linearGradient><linearGradient id="linear-gradient-4" x1="11.21" y1="1.35" x2="9.66" y2="8.02" gradientUnits="userSpaceOnUse"><stop offset="0" stop-color="#f9e77c" stop-opacity="0"/><stop offset="0.32" stop-color="#fdd349" stop-opacity="0.25"/><stop offset="0.53" stop-color="#ffc72a" stop-opacity="0.4"/><stop offset="0.55" stop-color="#ffc92f" stop-opacity="0.43"/><stop offset="0.71" stop-color="#ffde5b" stop-opacity="0.67"/><stop offset="0.84" stop-color="#ffec7c" stop-opacity="0.85"/><stop offset="0.94" stop-color="#fff690" stop-opacity="0.96"/><stop offset="0.99" stop-color="#fff997"/></linearGradient><linearGradient id="linear-gradient-5" x1="7.51" y1="14.99" x2="8.18" y2="29.88" xlink:href="#linear-gradient-4"/><linearGradient id="linear-gradient-6" x1="9.41" y1="7.66" x2="12.04" y2="10.47" xlink:href="#linear-gradient-3"/><linearGradient id="linear-gradient-7" x1="17.7" y1="16.36" x2="15.4" y2="26.28" xlink:href="#linear-gradient-4"/></defs><title>Asset 51</title><g id="Layer_2" data-name="Layer 2"><g id="Layer_1-2" data-name="Layer 1"><path class="cls-1" d="M10.82,0c-.58-.16-2.73,6.77-4.34,9.2S-.2,17.79,0,22.64s4.14,10.52,10.81,10,11-4.85,10.41-9.9-5.76-9.61-7.17-12.94S11.93.31,10.82,0Z"/><path class="cls-2" d="M19.36,19c-.88-1.48-2-2.81-2.92-4.26S14.9,12,14.09,10.7a16.64,16.64,0,0,0,.9,3.73A19.78,19.78,0,0,0,16.71,18c.65,1.08,1.36,2.13,1.92,3.25a8.48,8.48,0,0,1,1.07,3.64,5.45,5.45,0,0,1-.54,2.28,3.89,3.89,0,0,0,1.23-1.87A8.21,8.21,0,0,0,19.36,19Z"/><path class="cls-3" d="M10.56,32.12a11.67,11.67,0,0,1-4.37-.88A7.54,7.54,0,0,1,3,28.46C1.33,26,1.26,22.77,1.9,19.94A17.16,17.16,0,0,1,3.42,15.8c.8-1.55,1.84-3,2.76-4.47a25.27,25.27,0,0,0,1.4-2.55A27.59,27.59,0,0,0,8.63,6C9.19,4.35,9.72,2.65,10.17.93,9.25,2.87,7.71,7.35,6.48,9.2,4.86,11.63-.2,17.79,0,22.64s4.14,10.52,10.81,10a14.74,14.74,0,0,0,3.9-.81A21.61,21.61,0,0,1,10.56,32.12Z"/><path class="cls-4" d="M9.18,8.43a1.31,1.31,0,0,0,1.21-.29A2,2,0,0,0,11,6.92a7.77,7.77,0,0,0,0-1.6C11,4.64,11,4,11,3.29c-.05-.86-.15-1.71-.28-2.55-.21.66-.39,1.33-.55,2a25.55,25.55,0,0,1-.66,2.61,18,18,0,0,0-.73,1.84A1,1,0,0,0,9.18,8.43Z"/><path class="cls-5" d="M11.22,21.79c-1.12-1.29-2.6-2.15-3.78-3.37A7.27,7.27,0,0,1,6,16.32c-.23-.5-.42-1-.6-1.54a5.48,5.48,0,0,0-.9,1.11c-.29.43-.56.88-.83,1.32a.54.54,0,0,1-.08.38,10.23,10.23,0,0,0-.91,8.35,7.42,7.42,0,0,0,5.07,4.9,8.58,8.58,0,0,0,3.77.2,3.15,3.15,0,0,0,1.43-.61A2.54,2.54,0,0,0,13.71,29a6.87,6.87,0,0,0-.55-3.87A11,11,0,0,0,11.22,21.79Z"/><path class="cls-6" d="M13.06,8.74c0-.17-.12-.22-.17,0s-.44,1-2.06,1a4,4,0,0,1-2.41-.95c-.13-.05-.2,0-.18.14a2.55,2.55,0,0,0,2.55,1.83A2.12,2.12,0,0,0,13.06,8.74Z"/><path class="cls-7" d="M18.22,21.18c-1.09-1.75-3.16-3.22-3.69-5.27-.15-.58-.56-.38-.41.2.5,1.92,1.83,3.38,2.92,5s2,3.44,1.06,5.2c-.28.53.52,1,.8.47C19.84,24.92,19.25,22.84,18.22,21.18Z"/></g></g></svg>