<svg xmlns="http://www.w3.org/2000/svg" xmlns:xlink="http://www.w3.org/1999/xlink" viewBox="0 0 105.12 103.99"><defs><style>.cls-1{fill:url(#linear-gradient);}.cls-2{fill:url(#linear-gradient-2);}.cls-3{fill:url(#linear-gradient-3);}.cls-4{fill:url(#linear-gradient-4);}.cls-5{opacity:0.4;fill:url(#linear-gradient-5);}.cls-6{opacity:0.45;fill:url(#linear-gradient-6);}.cls-10,.cls-7{fill:#fff;}.cls-8{opacity:0.47;fill:url(#linear-gradient-7);}.cls-9{fill:url(#linear-gradient-8);}.cls-10{opacity:0.42;}.cls-11,.cls-15{fill:#8a3b10;}.cls-11,.cls-18{opacity:0.06;}.cls-12{fill:url(#linear-gradient-9);}.cls-13{fill:url(#linear-gradient-10);}.cls-14{fill:#f5f3f1;}.cls-15,.cls-28{opacity:0.1;}.cls-16{fill:url(#linear-gradient-11);}.cls-17{fill:url(#linear-gradient-12);}.cls-19{fill:#683a1b;}.cls-20{opacity:0.24;}.cls-21,.cls-32{fill:#fff1b6;}.cls-22{fill:#472b18;opacity:0.14;}.cls-23{fill:url(#linear-gradient-13);}.cls-24{opacity:0.19;}.cls-25{opacity:0.39;}.cls-26{fill:url(#linear-gradient-14);}.cls-27{fill:url(#linear-gradient-15);}.cls-29{opacity:0.2;}.cls-30{fill:#ffd892;}.cls-31{fill:#f8c673;}.cls-32{opacity:0.38;}</style><linearGradient id="linear-gradient" x1="55.16" y1="103.99" x2="55.16" y2="20.23" gradientUnits="userSpaceOnUse"><stop offset="0" stop-color="#e2ca9f"/><stop offset="0.07" stop-color="#e4cca2"/><stop offset="0.6" stop-color="#f4dcb3"/><stop offset="1" stop-color="#f9e1b9"/></linearGradient><linearGradient id="linear-gradient-2" x1="55.16" y1="101.75" x2="55.16" y2="22.47" gradientUnits="userSpaceOnUse"><stop offset="0" stop-color="#f9e1b9"/><stop offset="0.24" stop-color="#f9e4c0"/><stop offset="0.59" stop-color="#f9eed2"/><stop offset="1" stop-color="#fafdf1"/><stop offset="1" stop-color="#fafdf1"/></linearGradient><linearGradient id="linear-gradient-3" x1="25.4" y1="21.21" x2="83.08" y2="82.94" gradientUnits="userSpaceOnUse"><stop offset="0" stop-color="#ffbc04"/><stop offset="0.39" stop-color="#f4990e"/><stop offset="1" stop-color="#e05920"/></linearGradient><linearGradient id="linear-gradient-4" x1="13.06" y1="59.95" x2="97.25" y2="59.95" gradientUnits="userSpaceOnUse"><stop offset="0" stop-color="#ffbc04"/><stop offset="0.17" stop-color="#fcb307"/><stop offset="0.45" stop-color="#f49a0e"/><stop offset="0.81" stop-color="#e87219"/><stop offset="1" stop-color="#e05920"/></linearGradient><linearGradient id="linear-gradient-5" x1="92.51" y1="22.17" x2="77.33" y2="95.37" gradientUnits="userSpaceOnUse"><stop offset="0" stop-color="#f9e77c" stop-opacity="0"/><stop offset="0.28" stop-color="#f9ea88" stop-opacity="0.35"/><stop offset="0.54" stop-color="#f9ed91" stop-opacity="0.63"/><stop offset="0.75" stop-color="#f9ef98" stop-opacity="0.83"/><stop offset="0.91" stop-color="#f9f19c" stop-opacity="0.95"/><stop offset="1" stop-color="#f9f19e"/></linearGradient><linearGradient id="linear-gradient-6" x1="52.32" y1="64.21" x2="56.03" y2="25.42" xlink:href="#linear-gradient-5"/><linearGradient id="linear-gradient-7" x1="29.59" y1="22.46" x2="21.5" y2="67.86" gradientUnits="userSpaceOnUse"><stop offset="0" stop-color="#f9f19e"/><stop offset="0.09" stop-color="#f9f19c" stop-opacity="0.95"/><stop offset="0.25" stop-color="#f9ef98" stop-opacity="0.83"/><stop offset="0.46" stop-color="#f9ed91" stop-opacity="0.63"/><stop offset="0.72" stop-color="#f9ea88" stop-opacity="0.35"/><stop offset="1" stop-color="#f9e77c" stop-opacity="0"/></linearGradient><linearGradient id="linear-gradient-8" x1="16.03" y1="43.2" x2="31.45" y2="20.6" gradientUnits="userSpaceOnUse"><stop offset="0" stop-color="#f0e4d8"/><stop offset="0.34" stop-color="#eee0d2"/><stop offset="0.8" stop-color="#e8d3c1"/><stop offset="1" stop-color="#e5ccb7"/></linearGradient><linearGradient id="linear-gradient-9" x1="55.62" y1="21.97" x2="55.62" y2="6.58" gradientUnits="userSpaceOnUse"><stop offset="0" stop-color="#f0ddcb"/><stop offset="1" stop-color="#e5ccb7"/></linearGradient><linearGradient id="linear-gradient-10" x1="55.62" y1="15.39" x2="55.62" y2="0" xlink:href="#linear-gradient-8"/><linearGradient id="linear-gradient-11" x1="35.27" y1="32.35" x2="104.39" y2="32.35" xlink:href="#linear-gradient-8"/><linearGradient id="linear-gradient-12" x1="21.12" y1="18.59" x2="90.33" y2="18.59" gradientUnits="userSpaceOnUse"><stop offset="0" stop-color="#f8c673"/><stop offset="0.48" stop-color="#f5c16d"/><stop offset="1" stop-color="#efb560"/></linearGradient><linearGradient id="linear-gradient-13" x1="78.33" y1="39.43" x2="105.12" y2="39.43" gradientUnits="userSpaceOnUse"><stop offset="0" stop-color="#efb560"/><stop offset="0.52" stop-color="#f5c16d"/><stop offset="1" stop-color="#f8c673"/></linearGradient><linearGradient id="linear-gradient-14" x1="-1163.73" y1="242.97" x2="-1136.94" y2="242.97" gradientTransform="translate(-959.78 -512.81) rotate(-139.72)" xlink:href="#linear-gradient-12"/><linearGradient id="linear-gradient-15" x1="72.83" y1="36.32" x2="91.04" y2="36.32" xlink:href="#linear-gradient-13"/></defs><title>Asset 211</title><g id="Layer_2" data-name="Layer 2"><g id="Layer_1-2" data-name="Layer 1"><path class="cls-1" d="M87,20.23,55.16,23.86,23.29,20.23C13.19,29.6,5,41.53,10.13,60.68S28.7,97,35.61,100.27,45.54,104,55.16,104s12.64-.47,19.54-3.72S95,79.84,100.18,60.68,97.12,29.6,87,20.23Z"/><path class="cls-2" d="M85.32,22.47,55.16,25.9,25,22.47C15.44,31.34,7.65,42.63,12.54,60.76S30.12,95.15,36.65,98.23s9.4,3.52,18.51,3.52,12-.44,18.5-3.52S92.87,78.89,97.77,60.76,94.87,31.34,85.32,22.47Z"/><path class="cls-3" d="M83.94,23.32,55.16,26.49,26.37,23.32C17.26,31.51,9.83,42,14.5,58.7s16.76,31.78,23,34.63,9,3.25,17.66,3.25,11.41-.41,17.65-3.25,18.33-17.87,23-34.63S93.05,31.51,83.94,23.32Z"/><path class="cls-4" d="M83.94,23.32l-12.72,1.4c1.11,4.8,16.26,22.72-1.63,48.23C54.81,94,36.73,88,32,89.14a21.45,21.45,0,0,0,5.5,4.19c6.24,2.84,9,3.25,17.66,3.25s11.41-.41,17.65-3.25,18.33-17.87,23-34.63S93.05,31.51,83.94,23.32Z"/><path class="cls-5" d="M83.94,23.32l-.62.07c3.1,4.27,8.39,15.66,6.85,31.35-1.45,14.78-9.76,32.17-23.9,41a36.1,36.1,0,0,0,6.54-2.4c6.24-2.85,18.33-17.87,23-34.63S93.05,31.51,83.94,23.32Z"/><path class="cls-6" d="M32.29,35.6a20.6,20.6,0,0,0,2,14.6,26.51,26.51,0,0,0,10.17,10,30.53,30.53,0,0,0,12,4.18,16.47,16.47,0,0,0,9-1.44,17.41,17.41,0,0,0,6.49-5.74c3.85-5.52,5.41-12.47,5.84-19.09a55.13,55.13,0,0,0-.8-14l-21.78,2.4L37.62,24.56A31.94,31.94,0,0,0,32.29,35.6Z"/><path class="cls-7" d="M32,91.45c2.27,1.85,8.25,6.55,21.4,6.72s17-1.59,17-1.59-8.55,4.6-23.95,2.77C36.42,98.15,32,91.45,32,91.45Z"/><path class="cls-8" d="M18.73,56.66a46.36,46.36,0,0,0,7.68,19,123.09,123.09,0,0,1-1.83-12.4c-.82-9-.54-18.8,3.85-26.91C30.88,31.82,33,28,36.61,24.44l-9.72-1.07a39.9,39.9,0,0,0-5.74,9.94A44.08,44.08,0,0,0,18.73,56.66Z"/><path class="cls-9" d="M22,15.77A132.29,132.29,0,0,1,9.28,27.41c-6.57,5.15-10,4.72-9.16,5.7a21.75,21.75,0,0,1,7.13,4.35c3.35,3.1,3.7,3.58,9.32,4.29s17.35,3,19.92,5.38c0,0,7.54-17.63,6.11-25.18C42.6,22,24.61,17.51,22,15.77Z"/><path class="cls-10" d="M4.38,35.25a20.56,20.56,0,0,1,2,1.49,26.28,26.28,0,0,0,4.12-3.32c2.83-2.78,5-6.13,7.48-9.21,2-2.54,4.16-5,6.32-7.4l-.44-.16C16.82,22.21,10.67,28.84,4.38,35.25Z"/><path class="cls-10" d="M33.29,34.24a47.33,47.33,0,0,0,.48-6.62,42.65,42.65,0,0,0-.21-5.18,80.6,80.6,0,0,1-3.32,11.21C28.81,37,26.67,40,24.94,43.21c2.39.5,4.78,1.1,6.81,1.74C32,41.35,32.77,37.8,33.29,34.24Z"/><path class="cls-11" d="M22.87,41c.68-.94,1.38-1.86,2-2.82a24.25,24.25,0,0,0,3.18-6.2c.75-2.34,1.43-5.19.66-7.61-1-3.07-5-2-6.94-.43a35,35,0,0,0-4.28,4.82c-1.11,1.39-2.25,2.77-3.31,4.2-1.51,2-3.33,4.56-5.76,5.65,2.33,2.12,3.26,2.56,8.12,3.18,1.66.22,3.49.37,5.29.55C22.22,41.87,22.55,41.42,22.87,41Z"/><path class="cls-12" d="M73.42,7.7a133.51,133.51,0,0,0-17.8-1.12A133.46,133.46,0,0,0,37.83,7.7H21.38v6.58c0,4.25,15.33,7.69,34.24,7.69s34.25-3.44,34.25-7.69V7.7Z"/><path class="cls-13" d="M89.87,7.7c0,4.25-15.33,7.69-34.25,7.69S21.38,12,21.38,7.7,36.71,0,55.62,0,89.87,3.45,89.87,7.7Z"/><path class="cls-14" d="M22.59,9.73C22,10.8,30.06,17,55.62,17c20.57,0,34.25-5.51,33-7.3s-5.33,5.66-33,5.66C31.66,15.39,23.48,8.18,22.59,9.73Z"/><path class="cls-15" d="M62.1,6.6c-1.85-1.45-4.55-1.77-6.8-2-2.58-.29-5.18-.39-7.77-.5a70.63,70.63,0,0,0-7.42,0,29.63,29.63,0,0,0-8,1.55,2.5,2.5,0,0,0-1.52.93,1.34,1.34,0,0,0,.26,1.54,4.44,4.44,0,0,0,1.73,1.07,16.53,16.53,0,0,0,4.82,1.35,72.57,72.57,0,0,0,7.63.81c2.61.14,5.23.16,7.84.08a33.09,33.09,0,0,0,7.37-.73c.94-.24,2.28-.55,2.74-1.52A2.21,2.21,0,0,0,62.1,6.6Z"/><path class="cls-16" d="M42.4,21.4c-4.6.42-7.61,20.46-7.07,23S52,36,58,38.47s15.06,9.42,23,8.59,12.46-14.52,23.44-9.48c0,0-7.3-16.49-14.86-20C89.53,17.58,44.44,21.21,42.4,21.4Z"/><path class="cls-10" d="M60.31,38.05c-2.48-5.59-2.87-11.91-2.06-17.94l-6.09.49a21.58,21.58,0,0,0-3.07,9.27,35.33,35.33,0,0,0,.4,9.63c3.34-1.18,6.5-1.86,8.51-1,1,.43,2.17,1,3.37,1.63A20.94,20.94,0,0,1,60.31,38.05Z"/><path class="cls-10" d="M97.31,26.26a28,28,0,0,1,3.76,10.32,12.06,12.06,0,0,1,3.32,1S99.26,26,93.16,20.19C94.62,22.16,96.05,24.15,97.31,26.26Z"/><path class="cls-10" d="M85.79,17.88a31.87,31.87,0,0,1,2.94,4.84A34.87,34.87,0,0,1,92.6,39.27a12.08,12.08,0,0,1,6.62-2.78c-1.13-7.3-6-13-10.22-18.87l-3.21.26Z"/><path class="cls-11" d="M80.54,35.85a43.3,43.3,0,0,1-3.06-6,32.17,32.17,0,0,1-1-3.34c-.19-.72-.3-1.46-.52-2.17s-.4-1-1.07-1.05a2.52,2.52,0,0,0-1.69.54,10.23,10.23,0,0,0-2.84,3.52,28.26,28.26,0,0,0-3.18,10.18,24.48,24.48,0,0,0-.09,5.61c4.48,2.32,9.38,4.38,13.88,3.91a11.64,11.64,0,0,0,5.93-2.94C84.16,42,82.26,38.92,80.54,35.85Z"/><path class="cls-17" d="M21.66,13.47S20.25,15,22,16.9s11.19,6.69,33,6.8,33.94-5.06,34.87-5.79.26-2.86-.41-3c0,0-16.81,5.68-34.44,5C32.09,19.12,21.66,13.47,21.66,13.47Z"/><g class="cls-18"><path class="cls-19" d="M26.73,15.49l-.7-.23a16.09,16.09,0,0,0,4.71,5.65l1.48.39A15.55,15.55,0,0,1,26.73,15.49Z"/><path class="cls-19" d="M38.42,20.73c-.94-.94-1.83-1.92-2.71-2.92-.3,0-.57-.11-.85-.17C36,18.87,37,20.1,38.21,21.24A14.35,14.35,0,0,0,40,22.75l1.26.16A12.11,12.11,0,0,1,38.42,20.73Z"/><path class="cls-19" d="M86.25,15.9A41.33,41.33,0,0,0,90.31,17a2.35,2.35,0,0,0,0-.53c-1.06-.24-2.12-.51-3.17-.84Z"/><path class="cls-19" d="M31,16.74l-.75-.2A21.26,21.26,0,0,0,35,21.93l1.15.22A20.54,20.54,0,0,1,31,16.74Z"/><path class="cls-19" d="M25,17.44c-.35-.56-.67-1.13-1-1.71a6.35,6.35,0,0,1-.67-1.48L22.78,14a5,5,0,0,0,.67,1.77c.35.65.71,1.3,1.11,1.93a14,14,0,0,0,1,1.41c.37.16.76.33,1.19.5A10.91,10.91,0,0,1,25,17.44Z"/><path class="cls-19" d="M47.47,19.49l-1-.1a32.93,32.93,0,0,0,7.68,4.3H55c.22,0,.43,0,.65,0A32.35,32.35,0,0,1,47.47,19.49Z"/><path class="cls-19" d="M54.56,20l-1-.05a29.14,29.14,0,0,0,6.82,3.72l1.39-.06A28.57,28.57,0,0,1,54.56,20Z"/><path class="cls-19" d="M81.63,17.08l-.91.21a39.94,39.94,0,0,0,6.43,1.83c.33-.12.64-.23.91-.35A39.78,39.78,0,0,1,81.63,17.08Z"/><path class="cls-19" d="M74.59,18.5l-1.27.21a64,64,0,0,0,9.51,1.77l1.36-.39A63.46,63.46,0,0,1,74.59,18.5Z"/><path class="cls-19" d="M67.3,19.51l-1.44.14a88.9,88.9,0,0,0,10.45,2.29l1.54-.29A90,90,0,0,1,67.3,19.51Z"/><path class="cls-19" d="M68.11,23.1,69.27,23q-3.75-1.36-7.35-3.06l-1.09,0Q64.4,21.7,68.11,23.1Z"/><path class="cls-19" d="M41.48,18.79l-.95-.14a49.11,49.11,0,0,0,6.11,4.76l1.1.07A40.24,40.24,0,0,1,41.48,18.79Z"/></g><g class="cls-20"><path class="cls-21" d="M22.93,16l-.13-.15a2.06,2.06,0,0,1-.23-.41,2.42,2.42,0,0,1-.13-.46,1.41,1.41,0,0,1,0-.29.54.54,0,0,0-.52-.52.53.53,0,0,0-.52.52,2.88,2.88,0,0,0,.81,2,.53.53,0,0,0,.73,0A.51.51,0,0,0,22.93,16Z"/><path class="cls-21" d="M27.58,18.63c-.21-.24-.41-.48-.61-.73s-.37-.45-.54-.68a10.29,10.29,0,0,1-1-1.61.52.52,0,0,0-.71-.19.53.53,0,0,0-.18.71,15.6,15.6,0,0,0,2.31,3.23.51.51,0,0,0,.73,0A.53.53,0,0,0,27.58,18.63Z"/><path class="cls-21" d="M32.53,20a36.8,36.8,0,0,1-3.24-3.25.52.52,0,0,0-.74,0,.54.54,0,0,0,0,.73,41.53,41.53,0,0,0,3.24,3.26.52.52,0,0,0,.74-.74Z"/><path class="cls-21" d="M37.28,21a11.1,11.1,0,0,1-1.71-1.36A10.49,10.49,0,0,1,34.17,18a.52.52,0,1,0-.9.52,11.82,11.82,0,0,0,3.49,3.41.51.51,0,0,0,.71-.19A.52.52,0,0,0,37.28,21Z"/><path class="cls-21" d="M42.26,22a18.93,18.93,0,0,1-4.1-3.42.52.52,0,0,0-.73.73,19.79,19.79,0,0,0,4.31,3.59A.52.52,0,0,0,42.26,22Z"/><path class="cls-21" d="M48.89,22.25l-2.53-1.42a7.45,7.45,0,0,1-2.08-1.42.51.51,0,0,0-.73,0,.53.53,0,0,0,0,.73,7.77,7.77,0,0,0,2.21,1.54l2.6,1.46C49,23.47,49.47,22.57,48.89,22.25Z"/><path class="cls-21" d="M56.2,22.48A42.24,42.24,0,0,1,50.71,20c-.58-.32-1.11.57-.52.89a43.27,43.27,0,0,0,5.73,2.58.52.52,0,0,0,.28-1Z"/><path class="cls-21" d="M62.62,22a30.7,30.7,0,0,1-5-1.65.53.53,0,0,0-.71.18.52.52,0,0,0,.19.71A32.81,32.81,0,0,0,62.34,23C63,23.18,63.27,22.18,62.62,22Z"/><path class="cls-21" d="M70.82,21.76A24.23,24.23,0,0,1,65.44,20a.54.54,0,0,0-.71.18.53.53,0,0,0,.18.71,26.24,26.24,0,0,0,5.63,1.88C71.2,22.89,71.47,21.9,70.82,21.76Z"/><path class="cls-21" d="M78.72,20.29a14.6,14.6,0,0,1-6-1c-.59-.29-1.12.6-.52.89a15.61,15.61,0,0,0,6.52,1.16A.52.52,0,0,0,78.72,20.29Z"/><path class="cls-21" d="M85,18.91c-1.93-.25-3.84-.57-5.75-1-.65-.14-.92.86-.27,1q3,.61,6,1a.53.53,0,0,0,.52-.52A.54.54,0,0,0,85,18.91Z"/><path class="cls-21" d="M88.78,17c-.62,0-1.25-.07-1.87-.13a3.82,3.82,0,0,1-1.47-.42.52.52,0,0,0-.52.9,4.81,4.81,0,0,0,1.86.54c.67.07,1.34.1,2,.15a.52.52,0,0,0,.52-.52A.53.53,0,0,0,88.78,17Z"/></g><path class="cls-22" d="M90.21,16c-3.06,1.08-5.92,2.65-9,3.68a52.73,52.73,0,0,1-8,1.79,107.31,107.31,0,0,1-18,1.52c-6.8,0-27.46-1.89-34.06-8a2.82,2.82,0,0,0,.86,2c1.75,1.91,11.19,6.69,33,6.8s33.94-5.06,34.87-5.79A1.84,1.84,0,0,0,90.21,16Z"/><path class="cls-23" d="M104.71,58.43c-3.06-3.47-5.91-7.24-7.19-11.75-1.22-4.27-1.15-8.77-2.08-13.09a23.68,23.68,0,0,0-5-10.56c-2.65-3.05-6.37-4.25-10.16-5.24a1.55,1.55,0,0,0-.83,3c4.46,1.18,8,2.67,10.43,6.81,2.3,3.95,2.92,8.29,3.44,12.75a34.55,34.55,0,0,0,2.59,10.8,40,40,0,0,0,6.63,9.49C103.84,62.13,106,59.92,104.71,58.43Z"/><g class="cls-24"><path class="cls-19" d="M81.2,18l-.73-.19A9.28,9.28,0,0,1,82,21.56l.53.19A9.09,9.09,0,0,0,81.2,18Z"/><path class="cls-19" d="M84,18.92l-.75-.26a11.1,11.1,0,0,1,1.57,4.08c.2.1.39.21.57.32A11.66,11.66,0,0,0,84,18.92Z"/><path class="cls-19" d="M87.17,24.33l.49.44a13.94,13.94,0,0,0-.28-4.27l-.63-.36A13.17,13.17,0,0,1,87.17,24.33Z"/><path class="cls-19" d="M102.14,55.33l-.52-.69a19.83,19.83,0,0,0,.89,6h0a1.4,1.4,0,0,0,.68.44A19.35,19.35,0,0,1,102.14,55.33Z"/><path class="cls-19" d="M97.61,47a26,26,0,0,0-1,5.6c.15.28.31.55.47.82a25.4,25.4,0,0,1,.82-5.54C97.79,47.56,97.7,47.27,97.61,47Z"/><path class="cls-19" d="M93.74,28.34c-.14-.3-.28-.6-.43-.9a36.83,36.83,0,0,1-1.09,6.25c.09.35.17.71.24,1.06A37.7,37.7,0,0,0,93.74,28.34Z"/><path class="cls-19" d="M90.32,22.92c0,1.65-.13,3.3-.31,4.95.15.27.3.54.43.81.22-1.7.34-3.43.39-5.15-.14-.17-.27-.34-.41-.5Z"/><path class="cls-19" d="M96.11,45.63c.25-.69.52-1.39.72-2.09-.08-.5-.16-1-.22-1.49a17,17,0,0,1-1,3.55,19.23,19.23,0,0,0-.73,2.85c.11.34.23.67.35,1A21.13,21.13,0,0,1,96.11,45.63Z"/><path class="cls-19" d="M100.23,57.75a13.88,13.88,0,0,1-.74-6.39c-.15-.28-.3-.55-.44-.83a16.67,16.67,0,0,0,.31,6.26c.28.38.57.75.87,1.13A.2.2,0,0,0,100.23,57.75Z"/><path class="cls-19" d="M94.77,36.4c.26-.95.48-1.92.65-2.89-.09-.43-.2-.86-.31-1.29a32.84,32.84,0,0,1-.81,3.92,12.78,12.78,0,0,1-.76,2.26,3.29,3.29,0,0,1-.4.62l.09.71a4.33,4.33,0,0,0,.71-1A13,13,0,0,0,94.77,36.4Z"/><path class="cls-19" d="M96.27,39.21c0-.38-.09-.75-.13-1.13a26.75,26.75,0,0,1-2.46,5.15c0,.25.09.51.13.76A26.32,26.32,0,0,0,96.27,39.21Z"/></g><g class="cls-25"><path class="cls-21" d="M81,19.91a5.89,5.89,0,0,0-.35-.77,5.43,5.43,0,0,0-.48-.7.53.53,0,0,0-.36-.15.56.56,0,0,0-.37.15.51.51,0,0,0-.15.37.68.68,0,0,0,0,.14.45.45,0,0,0,.11.19l0-.05a4.66,4.66,0,0,1,.61,1,.64.64,0,0,1,0,.07.59.59,0,0,0,.24.3.51.51,0,0,0,.4.06.53.53,0,0,0,.31-.24A.51.51,0,0,0,81,19.91Z"/><path class="cls-21" d="M83.85,20.21a9,9,0,0,0-.77-1.06.51.51,0,0,0-.37-.15.51.51,0,0,0-.52.52.61.61,0,0,0,.15.36l.17.21,0,.05.08.1c.11.15.21.31.31.47l.12.23,0,.09h0a0,0,0,0,0,0,0h0s0,0,0,0a2.76,2.76,0,0,1,.08.27l0,.12h0v0a.58.58,0,0,0,.15.36.57.57,0,0,0,.37.16c.26,0,.55-.23.52-.52A3.42,3.42,0,0,0,83.85,20.21Z"/><path class="cls-21" d="M83.11,21v0h0Z"/><path class="cls-21" d="M86.56,22.27c-.07-.42-.14-.84-.2-1.25a1.59,1.59,0,0,0-.17-.52.92.92,0,0,0-.22-.26.82.82,0,0,0-.45-.16.49.49,0,0,0-.37.15.55.55,0,0,0-.15.36.48.48,0,0,0,.31.47,2.7,2.7,0,0,1,.07.41l.18,1.07a.53.53,0,0,0,.24.31.51.51,0,0,0,.4.06.56.56,0,0,0,.31-.24A.62.62,0,0,0,86.56,22.27Z"/><path class="cls-21" d="M88.92,22.31a.51.51,0,0,0-.63-.36.55.55,0,0,0-.37.64l.09.57c0,.22,0,.44.07.66,0,.44.06.89.07,1.33a.52.52,0,0,0,.51.52.53.53,0,0,0,.52-.52A20.82,20.82,0,0,0,88.92,22.31Z"/><path class="cls-21" d="M91.81,25.73a.53.53,0,0,0-.52.51c0,1.06,0,2.11-.05,3.17a.51.51,0,0,0,.52.51.53.53,0,0,0,.52-.51c0-1.06,0-2.11,0-3.17A.51.51,0,0,0,91.81,25.73Z"/><path class="cls-21" d="M94.23,31.27a.52.52,0,0,0-.64.36,17.59,17.59,0,0,1-.85,4.26.52.52,0,1,0,1,.28,17.67,17.67,0,0,0,.85-4.27A.53.53,0,0,0,94.23,31.27Z"/><path class="cls-21" d="M95.5,36.75a.54.54,0,0,0-.64.37,18.11,18.11,0,0,1-1.22,3.27.54.54,0,0,0,.19.71.53.53,0,0,0,.71-.19,19.4,19.4,0,0,0,1.32-3.52A.53.53,0,0,0,95.5,36.75Z"/><path class="cls-21" d="M96.17,41.39a.53.53,0,0,0-.64.36c-.5,1.25-1,2.51-1.43,3.78a.51.51,0,0,0,.36.64.53.53,0,0,0,.64-.36c.45-1.27.93-2.53,1.43-3.78A.53.53,0,0,0,96.17,41.39Z"/><path class="cls-21" d="M97,46.2a.53.53,0,0,0-.64.36,11.24,11.24,0,0,0-.49,3.51.52.52,0,0,0,.52.51.51.51,0,0,0,.52-.51,9.92,9.92,0,0,1,.45-3.24A.52.52,0,0,0,97,46.2Z"/><path class="cls-21" d="M98.33,53.51h0S98.34,53.55,98.33,53.51Z"/><path class="cls-21" d="M98.32,52.26s0-.08,0-.1a5.73,5.73,0,0,1,.38-1.36.54.54,0,0,0-.18-.71.52.52,0,0,0-.71.18,6.26,6.26,0,0,0-.48,3.52.51.51,0,0,0,.63.36.53.53,0,0,0,.36-.63v0s0-.08,0-.12,0-.11,0-.16,0-.26,0-.39,0-.23,0-.34S98.31,52.33,98.32,52.26Z"/><path class="cls-21" d="M101.32,57.44q-.1-.34-.18-.69l0-.21a.08.08,0,0,1,0,0v0c0-.12,0-.23,0-.35a4.21,4.21,0,0,1,0-.71c0-.12,0-.23,0-.35V55l0-.21a.52.52,0,0,0-.36-.64.52.52,0,0,0-.63.36,6.67,6.67,0,0,0,.17,3.23.53.53,0,0,0,.63.37A.54.54,0,0,0,101.32,57.44Z"/><path class="cls-21" d="M104.47,59.51l-.09-.2a12.34,12.34,0,0,1-.47-1.33.52.52,0,0,0-1,.27,14.13,14.13,0,0,0,.67,1.78.48.48,0,0,0,.3.24.55.55,0,0,0,.4-.05.53.53,0,0,0,.24-.31A.61.61,0,0,0,104.47,59.51Z"/></g><path class="cls-26" d="M77.26,22.62c.09,4.63-.16,9.35-2.11,13.63-1.83,4-4.79,7.42-6.87,11.32a23.73,23.73,0,0,0-3,11.3c0,4,2.12,7.36,4.37,10.57a1.55,1.55,0,0,0,2.56-1.75c-2.64-3.78-4.39-7.21-3.55-11.93.8-4.51,3.12-8.21,5.62-12a34.75,34.75,0,0,0,5-9.91,39.83,39.83,0,0,0,1.08-11.52C80.32,20.37,77.22,20.63,77.26,22.62Z"/><g class="cls-24"><path class="cls-19" d="M69.09,68.64l.43.62a9.59,9.59,0,0,1,1.2-3.85l-.28-.48A9.06,9.06,0,0,0,69.09,68.64Z"/><path class="cls-19" d="M67.53,66.16c.13.24.26.47.4.69a11.25,11.25,0,0,1,1.44-4.13c-.08-.2-.16-.41-.23-.61A11.86,11.86,0,0,0,67.53,66.16Z"/><path class="cls-19" d="M68.6,60c0-.22-.06-.43-.08-.65A14.09,14.09,0,0,0,66,62.76c.08.23.16.46.25.69A13.41,13.41,0,0,1,68.6,60Z"/><path class="cls-19" d="M77.22,26.65c0,.29,0,.58,0,.87a19.71,19.71,0,0,0,3.19-5.15h0a1.41,1.41,0,0,0-.24-.78A19.16,19.16,0,0,1,77.22,26.65Z"/><path class="cls-19" d="M75.28,36a27.1,27.1,0,0,0,4.38-3.62c.06-.31.12-.62.17-.94a26,26,0,0,1-4.2,3.7C75.52,35.39,75.4,35.68,75.28,36Z"/><path class="cls-19" d="M66.18,52.67c-.09.32-.17.64-.25,1a37,37,0,0,1,4.86-4.06l.51-1A37.73,37.73,0,0,0,66.18,52.67Z"/><path class="cls-19" d="M65.29,59a48.33,48.33,0,0,1,3.43-3.58c.06-.31.13-.61.2-.91Q67,56.3,65.29,58.23c0,.21,0,.43,0,.64A.81.81,0,0,0,65.29,59Z"/><path class="cls-19" d="M75.55,38c-.64.37-1.29.73-1.9,1.14-.26.42-.52.85-.79,1.27a16.79,16.79,0,0,1,3.08-2,19.26,19.26,0,0,0,2.4-1.7c.13-.33.26-.67.38-1A21.37,21.37,0,0,1,75.55,38Z"/><path class="cls-19" d="M80.24,26a13.81,13.81,0,0,1-3.57,5.36c-.06.3-.12.61-.19.91a16.87,16.87,0,0,0,3.81-5c0-.47,0-.95.06-1.43A.24.24,0,0,0,80.24,26Z"/><path class="cls-19" d="M70.61,45.86c-.82.56-1.61,1.16-2.37,1.78-.21.39-.4.79-.6,1.19a31.54,31.54,0,0,1,3.16-2.47,12.42,12.42,0,0,1,2-1.23,3.77,3.77,0,0,1,.7-.22c.13-.2.26-.4.4-.59a4,4,0,0,0-1.17.28A12.57,12.57,0,0,0,70.61,45.86Z"/><path class="cls-19" d="M71.28,42.75l-.63,1a26.11,26.11,0,0,1,5.2-2.34l.4-.67A26.58,26.58,0,0,0,71.28,42.75Z"/></g><g class="cls-25"><path class="cls-21" d="M70.45,67.34a7.66,7.66,0,0,0-.23.82,7.45,7.45,0,0,0-.09.84.56.56,0,0,0,.19.35.49.49,0,0,0,.37.12.5.5,0,0,0,.35-.18l.08-.12a.54.54,0,0,0,0-.22V69a4.8,4.8,0,0,1,.21-1.18s0,0,0-.06a.52.52,0,0,0-.94-.44Z"/><path class="cls-21" d="M68.47,65.27a9.5,9.5,0,0,0-.09,1.31.52.52,0,0,0,.91.29.62.62,0,0,0,.12-.38,2.17,2.17,0,0,1,0-.26v-.06a.57.57,0,0,1,0-.13,5.32,5.32,0,0,1,.06-.56c0-.08,0-.17.05-.26l0-.09h0v0l0,0a2,2,0,0,1,.11-.26l.06-.12h0l0,0a.58.58,0,0,0,.12-.38A.52.52,0,0,0,69,64,3.2,3.2,0,0,0,68.47,65.27Z"/><path class="cls-21" d="M69.57,65.13v0h0Z"/><path class="cls-21" d="M67.74,62,67.08,63a1.6,1.6,0,0,0-.21.5.78.78,0,0,0,0,.34.73.73,0,0,0,.23.41.53.53,0,0,0,.38.12.48.48,0,0,0,.35-.18.5.5,0,0,0,.12-.37.78.78,0,0,0,0-.18,3.24,3.24,0,0,1,.2-.36c.19-.31.38-.62.56-.94a.46.46,0,0,0,0-.38.5.5,0,0,0-.27-.3.53.53,0,0,0-.39,0A.54.54,0,0,0,67.74,62Z"/><path class="cls-21" d="M66,60.39a.51.51,0,0,0,.25.68.53.53,0,0,0,.69-.25c.13-.22.2-.32.31-.49s.24-.37.37-.55q.39-.54.81-1.05a.53.53,0,0,0-.06-.73.52.52,0,0,0-.73.06A19.12,19.12,0,0,0,66,60.39Z"/><path class="cls-21" d="M66,55.91a.52.52,0,0,0,.73-.06l2.09-2.37a.52.52,0,0,0-.79-.67L65.9,55.19A.51.51,0,0,0,66,55.91Z"/><path class="cls-21" d="M67.7,50.13a.52.52,0,0,0,.72.13,17.63,17.63,0,0,1,3.4-2.7.52.52,0,1,0-.58-.86,17.75,17.75,0,0,0-3.41,2.71A.54.54,0,0,0,67.7,50.13Z"/><path class="cls-21" d="M70.28,45.12a.52.52,0,0,0,.72.13,17.84,17.84,0,0,1,3-1.7.54.54,0,0,0,.32-.67.53.53,0,0,0-.66-.31,19.27,19.27,0,0,0-3.29,1.83A.52.52,0,0,0,70.28,45.12Z"/><path class="cls-21" d="M72.77,41.15a.52.52,0,0,0,.72.13c1.19-.62,2.37-1.28,3.53-2a.52.52,0,0,0-.58-.86c-1.17.68-2.35,1.33-3.54,2A.52.52,0,0,0,72.77,41.15Z"/><path class="cls-21" d="M75.26,37a.54.54,0,0,0,.72.14,11,11,0,0,0,2.64-2.36.52.52,0,1,0-.79-.67,9.69,9.69,0,0,1-2.43,2.17A.53.53,0,0,0,75.26,37Z"/><path class="cls-21" d="M79,30.5h0S79,30.47,79,30.5Z"/><path class="cls-21" d="M78.15,31.47a.23.23,0,0,0-.07.07,6.18,6.18,0,0,1-1.17.79.52.52,0,1,0,.34,1,6.39,6.39,0,0,0,2.64-2.38.5.5,0,0,0-.25-.68.53.53,0,0,0-.69.25v0a.86.86,0,0,1-.07.1l-.09.13a3.76,3.76,0,0,1-.25.31l-.22.25A1.21,1.21,0,0,0,78.15,31.47Z"/><path class="cls-21" d="M79.21,25.58a5.25,5.25,0,0,1-.31.63l-.11.19,0,0,0,0-.21.29a5.85,5.85,0,0,1-.45.54l-.25.25,0,0,0,0-.17.14a.54.54,0,0,0-.14.72.53.53,0,0,0,.72.14,6.73,6.73,0,0,0,2-2.58.5.5,0,0,0-.25-.68A.52.52,0,0,0,79.21,25.58Z"/><path class="cls-21" d="M78.15,22c0,.07-.05.14-.07.21a12.34,12.34,0,0,1-.5,1.32.52.52,0,0,0,.94.43,14,14,0,0,0,.65-1.78.54.54,0,0,0-.42-.6.54.54,0,0,0-.39.08A.64.64,0,0,0,78.15,22Z"/></g><path class="cls-27" d="M90.24,34.6A26.73,26.73,0,0,0,78.39,18.83a1.39,1.39,0,0,0-1.91.34,1.33,1.33,0,0,0-1.23,1.11c-1.66,7.65-3.24,16.36-2,24.17.92,5.53,5.87,12.22,12,8.54S91.85,40.69,90.24,34.6ZM84.52,49.76c-2.87,2.37-5.88.32-7.23-2.63a17.81,17.81,0,0,1-1.23-7.44A87.84,87.84,0,0,1,78,22.29a23.44,23.44,0,0,1,8.53,10.87C88.4,38.18,89.16,45.94,84.52,49.76Z"/><g class="cls-28"><path class="cls-19" d="M77.92,22.71c0-.14,0-.28.08-.42l.3.22c.1-.17,0-.46-.28-.38a8.23,8.23,0,0,0-3.7,2.63l-.18,1A9.33,9.33,0,0,1,77.92,22.71Z"/><path class="cls-19" d="M85.43,28.33a7.93,7.93,0,0,1-.08,2.23c.12.23.24.45.35.68a7.33,7.33,0,0,0,.26-2.8c-.07-1-.17-2-.29-3.05-.2-.27-.41-.53-.63-.79C85.21,25.84,85.35,27.08,85.43,28.33Z"/><path class="cls-19" d="M90.27,34.71A14.32,14.32,0,0,1,88,40.86c0,.28,0,.55,0,.83a12.35,12.35,0,0,0,2.57-5.77C90.46,35.51,90.37,35.1,90.27,34.71Z"/><path class="cls-19" d="M87.28,35.59c.09.36.18.73.25,1.1a24.2,24.2,0,0,0,.89-6.93c-.18-.36-.37-.72-.57-1.07A23.53,23.53,0,0,1,87.28,35.59Z"/><path class="cls-19" d="M76.45,32.35a17,17,0,0,0-3.62,5.77c0,.44,0,.87,0,1.31a20.06,20.06,0,0,1,3.52-6.25C76.39,32.91,76.42,32.63,76.45,32.35Z"/><path class="cls-19" d="M84.31,50.71l-.73-.34a4.06,4.06,0,0,1-.65.27l1.45.68A11.36,11.36,0,0,0,86,52a3.87,3.87,0,0,0,.68.12c.19-.17.38-.33.56-.51A6.21,6.21,0,0,1,84.31,50.71Z"/><path class="cls-19" d="M77.66,47.83c-.13-.23-.26-.46-.37-.7l-.12-.31a10.12,10.12,0,0,0,1.76,6.47,7,7,0,0,0,1,.43A9.6,9.6,0,0,1,77.66,47.83Z"/><path class="cls-19" d="M76.3,43.63c0-.29-.07-.57-.1-.86a13.43,13.43,0,0,0-1.33,2.91,8.27,8.27,0,0,0-.32,2.65c.18.37.38.74.59,1.09a9,9,0,0,1,.26-3.72A11.89,11.89,0,0,1,76.3,43.63Z"/><path class="cls-19" d="M76.07,39.28c0-.27,0-.54,0-.81a16.09,16.09,0,0,0-3,4.83l.15,1.1A16.13,16.13,0,0,1,76.07,39.28Z"/><path class="cls-19" d="M85.77,48.48c-.12.16-.25.31-.39.47a7.59,7.59,0,0,0,4-.44l.33-.7A7.05,7.05,0,0,1,85.77,48.48Z"/><path class="cls-19" d="M89.73,43.69a4.27,4.27,0,0,1-1.35,1.51,3.34,3.34,0,0,1-1,.28c-.06.18-.12.36-.19.54a5.78,5.78,0,0,0,1.41-.33A4.17,4.17,0,0,0,90,44.21c.34-.48.65-1,1-1.47,0-.38.06-.76.07-1.15C90.62,42.31,90.2,43,89.73,43.69Z"/><path class="cls-19" d="M83,53.92a10.56,10.56,0,0,1-1-1.55,13.46,13.46,0,0,1-.82-1.66,5,5,0,0,1-.63-.19A13.85,13.85,0,0,0,81.79,53c.21.34.44.67.68,1A5.62,5.62,0,0,0,83,53.92Z"/><path class="cls-19" d="M74.47,31.37a11.08,11.08,0,0,1,2.35-2.19l.09-.69A12.15,12.15,0,0,0,74.11,31a13.12,13.12,0,0,0-1,1.39L73,33.62A15,15,0,0,1,74.47,31.37Z"/><path class="cls-19" d="M79.54,23.47l.49.41a27,27,0,0,0,0-3.92l-.54-.39A26.72,26.72,0,0,1,79.54,23.47Z"/><path class="cls-19" d="M82.06,21.56a24.48,24.48,0,0,1,.82,5.28c.17.2.33.41.5.63a19.69,19.69,0,0,0-.66-5.32Z"/><path class="cls-19" d="M75.72,26.93a5.56,5.56,0,0,1,1.69-1.51c0-.2.06-.39.1-.59a5,5,0,0,0-2,1.55c-.64.75-1.25,1.52-1.86,2.28l-.15,1C74.24,28.76,75,27.84,75.72,26.93Z"/></g><g class="cls-29"><path class="cls-21" d="M77.22,24.15a.54.54,0,0,0-.71-.19,9.41,9.41,0,0,0-2.14,1.94.52.52,0,0,0,.74.73c.3-.34.6-.68.93-1,.16-.15.32-.3.49-.44h0l0,0,.15-.1a2.9,2.9,0,0,1,.29-.19A.53.53,0,0,0,77.22,24.15Z"/><path class="cls-21" d="M76.58,27.51a.53.53,0,0,0-.73,0,12.08,12.08,0,0,0-2.18,2.28.51.51,0,0,0,0,.4.49.49,0,0,0,.24.31.52.52,0,0,0,.7-.19l.12-.15h0l.06-.08L75,29.8c.16-.19.33-.37.5-.55a11.76,11.76,0,0,1,1.11-1,.48.48,0,0,0,.15-.36A.51.51,0,0,0,76.58,27.51Z"/><path class="cls-21" d="M76,31.43a.52.52,0,0,0-.73,0,12.31,12.31,0,0,0-2,3,.52.52,0,1,0,.89.52A13.23,13.23,0,0,1,75,33.46l.24-.34.12-.16.08-.11,0,0c.18-.23.36-.45.56-.67A.53.53,0,0,0,76,31.43Z"/><path class="cls-21" d="M75.59,37.06a.54.54,0,0,0-.73,0,9.39,9.39,0,0,0-1.79,3.11.51.51,0,1,0,1,.27c0-.12.09-.25.14-.37l0-.09v0a1.42,1.42,0,0,1,.08-.18c.11-.25.24-.49.37-.73s.28-.46.43-.67l.12-.16.06-.08h0l.27-.32A.53.53,0,0,0,75.59,37.06Z"/><path class="cls-21" d="M75.55,42a.53.53,0,0,0-.71.19,14.71,14.71,0,0,0-1.18,2.73.52.52,0,1,0,1,.28c.07-.23.15-.46.23-.69s.08-.21.13-.31a.78.78,0,0,1,0-.14v0l0-.08c.19-.43.4-.84.63-1.25A.53.53,0,0,0,75.55,42Z"/><path class="cls-21" d="M76.78,49.88a10.42,10.42,0,0,1-.06-3.39.53.53,0,0,0-.36-.63.52.52,0,0,0-.64.36,12.06,12.06,0,0,0,.06,3.93.53.53,0,0,0,.63.37A.53.53,0,0,0,76.78,49.88Z"/><path class="cls-21" d="M81,52.62v0h0l-.07-.05-.12-.12a1.51,1.51,0,0,1-.21-.23l0,0L80.44,52a1.67,1.67,0,0,1-.18-.28,6.55,6.55,0,0,1-.32-.58l-.14-.29a.89.89,0,0,1-.08-.17l0-.1h0a.62.62,0,0,0-.24-.31.51.51,0,0,0-.4,0,.52.52,0,0,0-.36.63,10,10,0,0,0,.71,1.43,4.24,4.24,0,0,0,1.06,1.21.56.56,0,0,0,.4,0,.57.57,0,0,0,.31-.24A.54.54,0,0,0,81,52.62Z"/><path class="cls-21" d="M81,52.64Z"/><path class="cls-21" d="M84.18,52.35l-.1-.08a.58.58,0,0,0-.17-.06l-.3-.08a1.88,1.88,0,0,1-.24-.14,1.8,1.8,0,0,1-.19-.2,1.76,1.76,0,0,1-.14-.23l0-.08a.49.49,0,0,0-.23-.31.52.52,0,0,0-.77.58,2,2,0,0,0,.63,1,2.51,2.51,0,0,0,.48.32,3.4,3.4,0,0,0,.34.12,2,2,0,0,0,.35.06.5.5,0,0,0,.37-.15.51.51,0,0,0,.15-.36A.5.5,0,0,0,84.18,52.35Z"/><path class="cls-21" d="M87.63,50.19a.55.55,0,0,0-.64-.37l-.14,0a2.91,2.91,0,0,1-1.38-.14.52.52,0,0,0-.64.36.54.54,0,0,0,.36.64,4,4,0,0,0,2.07.11A.52.52,0,0,0,87.63,50.19Z"/><path class="cls-21" d="M89.63,46.16a.52.52,0,0,0-.73,0l-.11.09-.05,0h0s0,0,0,0l-.21.15-.51.33-.53.26-.06,0-.12,0-.29.11a.52.52,0,0,0,.27,1,7.16,7.16,0,0,0,2.36-1.33A.51.51,0,0,0,89.63,46.16Z"/><path class="cls-21" d="M88.74,46.29h0Z"/><path class="cls-21" d="M90.66,40.5a.52.52,0,0,0-.7.19,7.44,7.44,0,0,1-.78,1.37l-.1.15,0,0,0,0a3.61,3.61,0,0,1-.25.3,6.25,6.25,0,0,1-.57.58.52.52,0,0,0,.73.73,7.83,7.83,0,0,0,1.93-2.69A.53.53,0,0,0,90.66,40.5Z"/><path class="cls-21" d="M89.35,34.31a.53.53,0,0,0-.51.52c0,.24,0,.48,0,.71l0,.39a.88.88,0,0,0,0,.16c0,.07,0,.07,0,0v.08a8.49,8.49,0,0,1-.33,1.41.51.51,0,0,0,.36.64.54.54,0,0,0,.64-.36,9.66,9.66,0,0,0,.45-3.06A.52.52,0,0,0,89.35,34.31Z"/><path class="cls-21" d="M87.44,28.48a.52.52,0,0,0-.64-.36.54.54,0,0,0-.36.64s0,.07,0,.11,0,0,0,0a1,1,0,0,0,0,.17l0,.38c0,.24,0,.48,0,.73s0,.48-.05.72v.05a.13.13,0,0,1,0,.05c0,.05,0,.11,0,.17s0,.27-.08.4a.52.52,0,0,0,.36.63.53.53,0,0,0,.64-.36A9.15,9.15,0,0,0,87.44,28.48Z"/><path class="cls-21" d="M84.63,24.54a.52.52,0,0,0-1,.28c.09.44.16.89.23,1.33v.07l0,.19c0,.1,0,.21,0,.31l.06.69a.52.52,0,1,0,1,0A20,20,0,0,0,84.63,24.54Z"/><path class="cls-21" d="M81.91,22a.53.53,0,0,0-.15-.36.57.57,0,0,0-.37-.16.52.52,0,0,0-.51.52c.06.69.1,1.39.12,2.08a.52.52,0,1,0,1,0C82,23.43,82,22.73,81.91,22Z"/></g><path class="cls-30" d="M79,18a3.67,3.67,0,0,0-4.07,1.14.53.53,0,0,0,0,.73l.06.05a2.18,2.18,0,0,0-.45,1.36,1.81,1.81,0,0,0,1.2,1.65,2.62,2.62,0,0,0,3-.9.52.52,0,0,0,.56,0,2.64,2.64,0,0,0,1.13-2.14A2,2,0,0,0,79,18Z"/><path class="cls-31" d="M77.47,20a3.74,3.74,0,0,0-2.37-.37c-.33.06-.19.56.13.5a3.15,3.15,0,0,1,1.89.27,3.26,3.26,0,0,1,.79.54c.22.21.53.53.46.87s.44.46.5.14C79,21.08,78.15,20.36,77.47,20Z"/><path class="cls-32" d="M76.53,21.44a3,3,0,0,0-.51-.85.5.5,0,0,0-.22-.16h-.11a.46.46,0,0,0-.26,0,.56.56,0,0,0-.32.24l0,0h0a1,1,0,0,0-.07.15v0a1.51,1.51,0,0,0,0,.79,1.35,1.35,0,0,0,.56.78,1,1,0,0,0,.48.17.5.5,0,0,0,.49-.24A1,1,0,0,0,76.53,21.44Z"/><path class="cls-32" d="M79.11,18.48a2.45,2.45,0,0,0-1.23-.39,2.36,2.36,0,0,0-1.38.25.27.27,0,0,0,0,.47c.09.24.4.32.67.33a4.38,4.38,0,0,1,1.08.14.86.86,0,0,1,.57.53,2.42,2.42,0,0,0,.42.85.25.25,0,0,0,.4-.05A1.64,1.64,0,0,0,79.11,18.48Z"/></g></g></svg>